<svg xmlns="http://www.w3.org/2000/svg" viewBox="0 0 2159 531"  fill-rule="evenodd" stroke-linecap="round" stroke-miterlimit="10" xmlns:v="https://vecta.io/nano"><g fill="none" stroke="#2da7c7" stroke-width="13"><path d="M1919.966 265.324v200"/><path d="M1875.266 354.341l44.7-44.701 44.7 44.701" class="B"/><path d="M1862.14 427.571l57.826-57.827 57.826 57.827m-57.826-162.247l-173.205 100"/><path d="M1820.525 271.121l61.062 16.361-16.362 61.062" class="B"/><path d="M1750.543 296.368l78.993 21.166-21.166 78.992m111.596-131.202l-173.205-100"/><path d="M1865.225 182.104l16.362 61.062-61.062 16.361" class="B"/><path d="M1808.37 134.122l21.166 78.992-78.993 21.166m169.423 31.044v-200"/><path d="M1964.666 176.307l-44.7 44.701-44.7-44.701" class="B"/><path d="M1977.792 103.077l-57.826 57.827-57.826-57.827m57.826 162.247l173.205-100"/><path d="M2019.407 259.527l-61.062-16.361 16.362-61.062" class="B"/><path d="M2089.389 234.28l-78.993-21.166 21.166-78.992m-111.596 131.202l173.205 100"/><path d="M1974.707 348.544l-16.362-61.062 61.062-16.361" class="B"/><path d="M2031.562 396.526l-21.166-78.992 78.993-21.166"/></g><path d="M121.618 437.149H90.906L.501 93.497h26.076l79.394 304.247 83.452-304.247h35.348l84.03 304.247 79.394-304.247h26.081L323.87 437.149h-30.717l-85.765-310.617-85.77 310.617zM458.895 93.497h23.18v343.652h-23.18zm120.539 343.652h-23.18V93.497h31.873l207.465 315.258V93.497h23.18v343.652h-31.873L579.434 126.532v310.617zm419.571 0H975.82V116.098H858.183V93.497h259.622v22.601h-118.8v321.051zm382.48 0H1157.21V93.497h224.274v22.601H1180.39v132.129h183.707v21.445H1180.39v145.459h201.095v22.018zm66.642 0h-23.18V93.497h164.002c23.568 0 43.657 8.888 60.267 26.659 16.615 17.387 24.919 38.633 24.919 63.747 0 22.023-5.02 41.145-15.064 57.371-10.433 16.226-23.374 25.692-38.827 28.399 14.292 3.863 25.882 16.031 34.77 36.509s13.33 45.203 13.33 74.175c0 16.226.384 28.399 1.157 36.509.773 9.661 2.318 16.42 4.636 20.283h-23.18c-3.863-4.636-6.376-13.135-7.532-25.498l-1.74-49.26c0-23.18-5.603-43.074-16.804-59.689-10.817-16.226-24.147-24.336-39.989-24.336h-136.765v158.783zm0-180.228h136.765c18.16 0 33.807-6.954 46.942-20.862 12.746-13.524 19.122-30.134 19.122-49.839 0-19.316-6.376-35.931-19.122-49.839-13.135-13.519-28.783-20.283-46.942-20.283h-136.765v140.823z" fill="#fff" fill-rule="nonzero" stroke="#fff" stroke-linejoin="round" stroke-miterlimit="2" stroke-width="1.02"/></svg>
